<?xml version="1.0" encoding="UTF-8"?>
<svg version="1.1" xmlns="http://www.w3.org/2000/svg" width="64" height="64">
<path d="M0 0 C14.52 0 29.04 0 44 0 C44.495 5.445 44.495 5.445 45 11 C45.515625 12.03125 46.03125 13.0625 46.5625 14.125 C48.55261729 18.10523457 48.26211282 21.63145296 48 26 C46.02 26.99 46.02 26.99 44 28 C44 35.26 44 42.52 44 50 C45.32 50 46.64 50 48 50 C48 50.66 48 51.32 48 52 C30.84 52 13.68 52 -4 52 C-4 51.34 -4 50.68 -4 50 C-2.68 50 -1.36 50 0 50 C0 42.74 0 35.48 0 28 C-1.32 27.34 -2.64 26.68 -4 26 C-4.3647648 19.92058665 -3.74496353 16.48992705 -1 11 C-0.67 7.37 -0.34 3.74 0 0 Z M2 3 C2 4.65 2 6.3 2 8 C12.56 8 23.12 8 34 8 C34 6.02 34 4.04 34 2 C29.60343827 1.97534496 25.2069128 1.95716158 20.81030273 1.94506836 C19.31355082 1.94002879 17.81680384 1.93319713 16.32006836 1.92456055 C14.17300193 1.91247841 12.02600038 1.90676809 9.87890625 1.90234375 C8.5854126 1.89710693 7.29191895 1.89187012 5.95922852 1.88647461 C3.11347596 1.66003068 3.11347596 1.66003068 2 3 Z M36 2 C36 3.98 36 5.96 36 8 C37.98 8 39.96 8 42 8 C42.042721 6.33388095 42.04063832 4.66617115 42 3 C40.93354885 1.70366379 40.93354885 1.70366379 38.4375 1.9375 C37.633125 1.958125 36.82875 1.97875 36 2 Z M8 10 C7.94593878 11.93719378 7.90717975 13.87481921 7.875 15.8125 C7.85179687 16.89144531 7.82859375 17.97039063 7.8046875 19.08203125 C7.76976283 22.19402868 7.76976283 22.19402868 10 25 C12.47266765 24.65555119 12.47266765 24.65555119 15 24 C16.38226016 21.23547967 16.09525387 18.9538637 16.0625 15.875 C16.05347656 14.77929688 16.04445313 13.68359375 16.03515625 12.5546875 C16.02355469 11.71164063 16.01195312 10.86859375 16 10 C13.36 10 10.72 10 8 10 Z M28 10 C27.94593878 11.93719378 27.90717975 13.87481921 27.875 15.8125 C27.85179688 16.89144531 27.82859375 17.97039063 27.8046875 19.08203125 C27.76976283 22.19402868 27.76976283 22.19402868 30 25 C32.47266765 24.65555119 32.47266765 24.65555119 35 24 C36.38226016 21.23547967 36.09525387 18.9538637 36.0625 15.875 C36.05347656 14.77929688 36.04445313 13.68359375 36.03515625 12.5546875 C36.02355469 11.71164063 36.01195312 10.86859375 36 10 C33.36 10 30.72 10 28 10 Z M2 28 C2 33.94 2 39.88 2 46 C9.26 46 16.52 46 24 46 C24 41.38 24 36.76 24 32 C27.96 32 31.92 32 36 32 C36 36.62 36 41.24 36 46 C37.98 46 39.96 46 42 46 C42 40.06 42 34.12 42 28 C37.41118525 27.23519754 33.58225135 26.87150205 28.9921875 26.8671875 C27.67605469 26.86589844 26.35992187 26.86460938 25.00390625 26.86328125 C23.98707764 26.86642334 23.98707764 26.86642334 22.94970703 26.86962891 C20.87394974 26.87500272 18.79840706 26.8696561 16.72265625 26.86328125 C15.40910156 26.86457031 14.09554688 26.86585937 12.7421875 26.8671875 C10.94563721 26.86887939 10.94563721 26.86887939 9.11279297 26.87060547 C5.81715212 26.9026048 5.81715212 26.9026048 2 28 Z M26 34 C26 34.66 26 35.32 26 36 C28.64 36 31.28 36 34 36 C34 35.34 34 34.68 34 34 C31.36 34 28.72 34 26 34 Z M26 38 C26 41.96 26 45.92 26 50 C28.64 50 31.28 50 34 50 C34 46.04 34 42.08 34 38 C31.36 38 28.72 38 26 38 Z M2 48 C2.33 48.66 2.66 49.32 3 50 C9.93 50 16.86 50 24 50 C24 49.34 24 48.68 24 48 C16.74 48 9.48 48 2 48 Z M36 48 C36 48.66 36 49.32 36 50 C37.65 50 39.3 50 41 50 C41.33 49.34 41.66 48.68 42 48 C40.02 48 38.04 48 36 48 Z " fill="#265697" transform="translate(10,6)"/>
<path d="M0 0 C14.52 0 29.04 0 44 0 C44.495 5.445 44.495 5.445 45 11 C46.4225861 14.43595207 46.4225861 14.43595207 48 17 C48 17.66 48 18.32 48 19 C47.01 19 46.02 19 45 19 C42 13.375 42 13.375 42 10 C41.15453613 10.16226074 40.30907227 10.32452148 39.43798828 10.49169922 C35.90235583 11.01443653 32.56487479 11.12945426 28.9921875 11.1328125 C27.67605469 11.13410156 26.35992187 11.13539062 25.00390625 11.13671875 C24.32602051 11.13462402 23.64813477 11.1325293 22.94970703 11.13037109 C20.87394974 11.12499728 18.79840706 11.1303439 16.72265625 11.13671875 C15.40910156 11.13542969 14.09554688 11.13414063 12.7421875 11.1328125 C11.5444873 11.13168457 10.34678711 11.13055664 9.11279297 11.12939453 C6.53871371 11.02239359 4.44347482 10.76108232 2 10 C1.7525 11.11375 1.505 12.2275 1.25 13.375 C0 17 0 17 -2.125 18.4375 C-2.74375 18.623125 -3.3625 18.80875 -4 19 C-2.125 13.25 -2.125 13.25 -1 11 C-0.67 7.37 -0.34 3.74 0 0 Z M2 3 C2 4.65 2 6.3 2 8 C12.56 8 23.12 8 34 8 C34 6.02 34 4.04 34 2 C29.60343827 1.97534496 25.2069128 1.95716158 20.81030273 1.94506836 C19.31355082 1.94002879 17.81680384 1.93319713 16.32006836 1.92456055 C14.17300193 1.91247841 12.02600038 1.90676809 9.87890625 1.90234375 C8.5854126 1.89710693 7.29191895 1.89187012 5.95922852 1.88647461 C3.11347596 1.66003068 3.11347596 1.66003068 2 3 Z M36 2 C36 3.98 36 5.96 36 8 C37.98 8 39.96 8 42 8 C42.042721 6.33388095 42.04063832 4.66617115 42 3 C40.93354885 1.70366379 40.93354885 1.70366379 38.4375 1.9375 C37.633125 1.958125 36.82875 1.97875 36 2 Z " fill="#2484A7" transform="translate(10,6)"/>
<path d="M0 0 C2.64 0 5.28 0 8 0 C8.05384521 2.29141286 8.09272087 4.58318188 8.125 6.875 C8.14820313 8.15117187 8.17140625 9.42734375 8.1953125 10.7421875 C8 14 8 14 6 16 C1.44444444 15.44444444 1.44444444 15.44444444 0 14 C-0.07271741 11.64686445 -0.08370868 9.29166332 -0.0625 6.9375 C-0.05347656 5.64714844 -0.04445313 4.35679688 -0.03515625 3.02734375 C-0.02355469 2.02832031 -0.01195313 1.02929688 0 0 Z " fill="#37258A" transform="translate(28,16)"/>
<path d="M0 0 C14.52 0 29.04 0 44 0 C44 2.31 44 4.62 44 7 C43.34 7 42.68 7 42 7 C41.505 5.02 41.505 5.02 41 3 C38.525 2.505 38.525 2.505 36 2 C36 2.66 36 3.32 36 4 C35.34 4 34.68 4 34 4 C34 3.34 34 2.68 34 2 C18.655 2.495 18.655 2.495 3 3 C2.67 4.32 2.34 5.64 2 7 C1.34 7 0.68 7 0 7 C0 4.69 0 2.38 0 0 Z " fill="#273C8D" transform="translate(10,6)"/>
<path d="M0 0 C5.94 0 11.88 0 18 0 C18 3.96 18 7.92 18 12 C12.06 12 6.12 12 0 12 C0 8.04 0 4.08 0 0 Z M2 2 C2 4.64 2 7.28 2 10 C6.62 10 11.24 10 16 10 C16 7.36 16 4.72 16 2 C11.38 2 6.76 2 2 2 Z " fill="#264B93" transform="translate(14,38)"/>
<path d="M0 0 C0.125 3.375 0.125 3.375 0 7 C-0.66 7.66 -1.32 8.32 -2 9 C-4.625 8.625 -4.625 8.625 -7 8 C-7.6875 5.6875 -7.6875 5.6875 -8 3 C-5.90994325 -0.36731366 -3.75103888 -0.30413829 0 0 Z " fill="#2F1C6B" transform="translate(16,23)"/>
<path d="M0 0 C2.64 0 5.28 0 8 0 C8.125 2.875 8.125 2.875 8 6 C7.34 6.66 6.68 7.32 6 8 C1.44444444 7.44444444 1.44444444 7.44444444 0 6 C-0.04080783 4.00041636 -0.04254356 1.99954746 0 0 Z " fill="#2F1A68" transform="translate(28,24)"/>
<path d="M0 0 C2.31 0 4.62 0 7 0 C7.625 2.875 7.625 2.875 8 6 C7.34 6.66 6.68 7.32 6 8 C1.44444444 7.44444444 1.44444444 7.44444444 0 6 C-0.04080783 4.00041636 -0.04254356 1.99954746 0 0 Z " fill="#2E1B68" transform="translate(48,24)"/>
<path d="M0 0 C1.32 0 2.64 0 4 0 C4.99 2.64 5.98 5.28 7 8 C4.69 8 2.38 8 0 8 C0 5.36 0 2.72 0 0 Z " fill="#362689" transform="translate(48,16)"/>
<path d="M0 0 C1.32 0 2.64 0 4 0 C4 2.31 4 4.62 4 7 C1.69 7.33 -0.62 7.66 -3 8 C-2.01 5.36 -1.02 2.72 0 0 Z " fill="#3A2F9A" transform="translate(12,16)"/>
<path d="M0 0 C2.64 0 5.28 0 8 0 C8 1.32 8 2.64 8 4 C5.36 4 2.72 4 0 4 C0 2.68 0 1.36 0 0 Z " fill="#3F30AA" transform="translate(28,16)"/>
<path d="M0 0 C1.98 0 3.96 0 6 0 C5.67 1.32 5.34 2.64 5 4 C3.35 3.67 1.7 3.34 0 3 C0 2.01 0 1.02 0 0 Z " fill="#28134E" transform="translate(49,28)"/>
<path d="M0 0 C1.98 0 3.96 0 6 0 C5.67 1.32 5.34 2.64 5 4 C3.35 3.67 1.7 3.34 0 3 C0 2.01 0 1.02 0 0 Z " fill="#28124E" transform="translate(29,28)"/>
<path d="M0 0 C1.98 0 3.96 0 6 0 C5.67 1.32 5.34 2.64 5 4 C3.35 3.67 1.7 3.34 0 3 C0 2.01 0 1.02 0 0 Z " fill="#28134E" transform="translate(9,28)"/>
<path d="M0 0 C1.32 0 2.64 0 4 0 C4.33 1.32 4.66 2.64 5 4 C3.35 4 1.7 4 0 4 C0 2.68 0 1.36 0 0 Z " fill="#3D33A9" transform="translate(48,16)"/>
<path d="M0 0 C0.66 0 1.32 0 2 0 C2 1.32 2 2.64 2 4 C1.34 4 0.68 4 0 4 C0 2.68 0 1.36 0 0 Z " fill="#27398D" transform="translate(38,48)"/>
<path d="M0 0 C1.32 0 2.64 0 4 0 C4 0.66 4 1.32 4 2 C2.68 2 1.36 2 0 2 C0 1.34 0 0.68 0 0 Z " fill="#33207B" transform="translate(26,10)"/>
<path d="M0 0 C1.32 0 2.64 0 4 0 C4 0.66 4 1.32 4 2 C2.68 2 1.36 2 0 2 C0 1.34 0 0.68 0 0 Z " fill="#33207B" transform="translate(20,10)"/>
<path d="M0 0 C1.32 0 2.64 0 4 0 C4 0.66 4 1.32 4 2 C2.68 2 1.36 2 0 2 C0 1.34 0 0.68 0 0 Z " fill="#33207B" transform="translate(14,10)"/>
</svg>
